<svg width="228" height="116" viewBox="0 0 228 116" fill="none" xmlns="http://www.w3.org/2000/svg">
<mask id="path-1-inside-1_0_1" fill="white">
<path d="M82 31.5C82 25.1487 87.1487 20 93.5 20V20C99.8513 20 105 25.1487 105 31.5V96.5C105 102.851 99.8513 108 93.5 108V108C87.1487 108 82 102.851 82 96.5V31.5Z"/>
</mask>
<path d="M82 31.5C82 25.1487 87.1487 20 93.5 20V20C99.8513 20 105 25.1487 105 31.5V96.5C105 102.851 99.8513 108 93.5 108V108C87.1487 108 82 102.851 82 96.5V31.5Z" fill="#FFFBCA"/>
<path d="M82 20H105H82ZM105 97C105 103.627 99.6274 109 93 109C86.3726 109 81 103.627 81 97L83 96.5C83 102.299 87.701 107 93.5 107C99.8513 107 105 102.299 105 96.5V97ZM93 109C86.3726 109 81 103.627 81 97V32.5C81 25.5964 86.5964 20 93.5 20C87.701 20 83 25.1487 83 31.5V96.5C83 102.299 87.701 107 93.5 107L93 109ZM105 20V108V20Z" fill="#4635B1" mask="url(#path-1-inside-1_0_1)"/>
<mask id="path-3-inside-2_0_1" fill="white">
<path d="M123 11.5C123 5.14872 128.149 0 134.5 0V0C140.851 0 146 5.14873 146 11.5V104.5C146 110.851 140.851 116 134.5 116V116C128.149 116 123 110.851 123 104.5V11.5Z"/>
</mask>
<path d="M123 11.5C123 5.14872 128.149 0 134.5 0V0C140.851 0 146 5.14873 146 11.5V104.5C146 110.851 140.851 116 134.5 116V116C128.149 116 123 110.851 123 104.5V11.5Z" fill="#4635B1"/>
<path d="M123 0H146H123ZM146 105C146 111.627 140.627 117 134 117C127.373 117 122 111.627 122 105L124 104.5C124 110.299 128.701 115 134.5 115C140.851 115 146 110.299 146 104.5V105ZM134 117C127.373 117 122 111.627 122 105V12.5C122 5.59644 127.596 0 134.5 0C128.701 0 124 5.14873 124 11.5V104.5C124 110.299 128.701 115 134.5 115L134 117ZM146 0V116V0Z" fill="#FFFBCA" mask="url(#path-3-inside-2_0_1)"/>
<mask id="path-5-inside-3_0_1" fill="white">
<path d="M164 52.5C164 46.1487 169.149 41 175.5 41V41C181.851 41 187 46.1487 187 52.5V96.5C187 102.851 181.851 108 175.5 108V108C169.149 108 164 102.851 164 96.5V52.5Z"/>
</mask>
<path d="M164 52.5C164 46.1487 169.149 41 175.5 41V41C181.851 41 187 46.1487 187 52.5V96.5C187 102.851 181.851 108 175.5 108V108C169.149 108 164 102.851 164 96.5V52.5Z" fill="#4635B1"/>
<path d="M164 41H187H164ZM187 97C187 103.627 181.627 109 175 109C168.373 109 163 103.627 163 97L165 96.5C165 102.299 169.701 107 175.5 107C181.851 107 187 102.299 187 96.5V97ZM175 109C168.373 109 163 103.627 163 97V53.5C163 46.5964 168.596 41 175.5 41C169.701 41 165 46.1487 165 52.5V96.5C165 102.299 169.701 107 175.5 107L175 109ZM187 41V108V41Z" fill="#FFFBCA" mask="url(#path-5-inside-3_0_1)"/>
<mask id="path-7-inside-4_0_1" fill="white">
<path d="M0 65.5C0 59.1487 5.14873 54 11.5 54V54C17.8513 54 23 59.1487 23 65.5V83.5C23 89.8513 17.8513 95 11.5 95V95C5.14873 95 0 89.8513 0 83.5V65.5Z"/>
</mask>
<path d="M0 65.5C0 59.1487 5.14873 54 11.5 54V54C17.8513 54 23 59.1487 23 65.5V83.5C23 89.8513 17.8513 95 11.5 95V95C5.14873 95 0 89.8513 0 83.5V65.5Z" fill="#4635B1"/>
<path d="M0 54H23H0ZM23 84C23 90.6274 17.6274 96 11 96C4.37258 96 -1 90.6274 -1 84L1 83.5C1 89.299 5.70101 94 11.5 94C17.8513 94 23 89.299 23 83.5V84ZM11 96C4.37258 96 -1 90.6274 -1 84V66.5C-1 59.5964 4.59644 54 11.5 54C5.70101 54 1 59.1487 1 65.5V83.5C1 89.299 5.70101 94 11.5 94L11 96ZM23 54V95V54Z" fill="#FFFBCA" mask="url(#path-7-inside-4_0_1)"/>
<mask id="path-9-inside-5_0_1" fill="white">
<path d="M205 75.5C205 69.1487 210.149 64 216.5 64V64C222.851 64 228 69.1487 228 75.5V81.5C228 87.8513 222.851 93 216.5 93V93C210.149 93 205 87.8513 205 81.5V75.5Z"/>
</mask>
<path d="M205 75.5C205 69.1487 210.149 64 216.5 64V64C222.851 64 228 69.1487 228 75.5V81.5C228 87.8513 222.851 93 216.5 93V93C210.149 93 205 87.8513 205 81.5V75.5Z" fill="#4635B1"/>
<path d="M205 64H228H205ZM228 82C228 88.6274 222.627 94 216 94C209.373 94 204 88.6274 204 82L206 81.5C206 87.299 210.701 92 216.5 92C222.851 92 228 87.299 228 81.5V82ZM216 94C209.373 94 204 88.6274 204 82V76.5C204 69.5964 209.596 64 216.5 64C210.701 64 206 69.1487 206 75.5V81.5C206 87.299 210.701 92 216.5 92L216 94ZM228 64V93V64Z" fill="#FFFBCA" mask="url(#path-9-inside-5_0_1)"/>
<mask id="path-11-inside-6_0_1" fill="white">
<path d="M41 66.5C41 60.1487 46.1487 55 52.5 55V55C58.8513 55 64 60.1487 64 66.5V101.5C64 107.851 58.8513 113 52.5 113V113C46.1487 113 41 107.851 41 101.5V66.5Z"/>
</mask>
<path d="M41 66.5C41 60.1487 46.1487 55 52.5 55V55C58.8513 55 64 60.1487 64 66.5V101.5C64 107.851 58.8513 113 52.5 113V113C46.1487 113 41 107.851 41 101.5V66.5Z" fill="#4635B1"/>
<path d="M41 55H64H41ZM64 102C64 108.627 58.6274 114 52 114C45.3726 114 40 108.627 40 102L42 101.5C42 107.299 46.701 112 52.5 112C58.8513 112 64 107.299 64 101.5V102ZM52 114C45.3726 114 40 108.627 40 102V67.5C40 60.5964 45.5964 55 52.5 55C46.701 55 42 60.1487 42 66.5V101.5C42 107.299 46.701 112 52.5 112L52 114ZM64 55V113V55Z" fill="#FFFBCA" mask="url(#path-11-inside-6_0_1)"/>
</svg>
